<?xml version="1.0" encoding="utf-8"?>
<!-- Generator: Adobe Illustrator 22.0.1, SVG Export Plug-In . SVG Version: 6.00 Build 0)  -->
<svg version="1.1" id="Layer_1" xmlns="http://www.w3.org/2000/svg" xmlns:xlink="http://www.w3.org/1999/xlink" x="0px" y="0px"
	 viewBox="0 0 2000 2000" style="enable-background:new 0 0 2000 2000;" xml:space="preserve">
<style type="text/css">
	.st0{fill:#FFFFFF;stroke:#F2F2F2;stroke-linecap:round;stroke-miterlimit:10;}
	.st1{fill:#F2F2F2;}
</style>
<rect class="st0" width="2000" height="2000"/>
<g>
	<image style="overflow:visible;" width="1120" height="1851" xlink:href="108F8B44.png"  transform="matrix(1 0 0 1 338 48)">
	</image>
	<g>
		
			<image style="overflow:visible;opacity:0.89;" width="1042" height="1776" xlink:href="108F8B43.png"  transform="matrix(1 0 0 1 377 86)">
		</image>
		<g>
			<image style="overflow:visible;" width="1032" height="1766" xlink:href="108F8B4B.png"  transform="matrix(1 0 0 1 380 93)">
			</image>
			<g>
				<g>
					<g>
						<path class="st1" d="M1070,1422.4c-3.7-6.7-7-13.4-10.2-20.3c-3.2-6.9-6.2-13.8-9.1-20.9c-5.7-14.1-10.8-28.4-15.2-43
							c-4.4-14.6-8.2-29.4-11.2-44.4c-1.4-7.5-2.7-15.1-3.8-22.7c-1.1-7.6-1.9-15.3-2.6-22.9l-0.5-5.8l-0.4-5.8l-0.3-5.8
							c-0.1-1.9-0.2-3.9-0.3-5.8c-0.3-7.8-0.4-15.5-0.2-23.3c0.1-3.9,0.4-7.8,0.7-11.7c0.4-3.9,0.8-7.8,1.4-11.7
							c0.6-3.9,1.3-7.7,2.1-11.6c0.9-3.8,1.8-7.6,2.9-11.4c1.1-3.8,2.3-7.5,3.5-11.2l2.1-5.5c0.7-1.8,1.4-3.7,2.2-5.5
							c3-7.3,6.5-14.3,10.4-21.1c7.8-13.6,17.2-26.2,28.6-36.7c0.5-0.5,1.3-0.4,1.7,0.1c0.3,0.4,0.4,0.8,0.3,1.3l0,0
							c-2.7,7.2-5.6,14.1-8,21.2c-2.5,7-4.9,13.9-7,21l-0.8,2.6l-0.7,2.6c-0.5,1.8-1,3.5-1.5,5.2c-0.9,3.5-1.9,7-2.7,10.5
							c-1.7,7-3.3,14.1-4.6,21.1c-0.3,1.8-0.7,3.5-1,5.3l-0.9,5.3c-0.6,3.6-1.2,7.1-1.7,10.7c-1.1,7.1-2.3,14.2-3.2,21.4
							c-2,14.4-3.1,29-2.9,43.7c0.1,7.3,0.4,14.7,0.9,22c0.5,7.4,1.2,14.7,2.1,22c1.6,14.7,4,29.4,7,43.9
							c2.9,14.6,6.6,29.1,10.7,43.5c2.1,7.2,4.3,14.3,6.7,21.4c2.4,7.1,4.9,14.2,7.7,21.1l0,0c0.2,0.6,0,1.3-0.7,1.6
							C1070.9,1423.2,1070.3,1422.9,1070,1422.4z"/>
						<path class="st1" d="M1374.6,1836.1l1.8-23.8l0.4-6c0.2-2,0.2-4,0.3-6l0.6-11.9l0.6-11.9c0.1-2,0.2-4,0.2-6l0.2-6l0.6-23.9
							c0.4-31.8,0.1-63.7-1-95.4c-2.4-63.6-7.5-127-14.4-190.2c-3.5-31.6-8-63.1-12.7-94.5l-6.9-47.2c-2.2-15.7-4.4-31.5-6.5-47.2
							l-12.4-94.7c-4.1-31.6-8.1-63.3-11.6-95.1l0,0c-0.1-0.7,0.4-1.3,1.1-1.3c0.6-0.1,1.1,0.3,1.3,0.8c5.3,15.2,9.6,30.6,14,46
							c4.3,15.4,8.2,31,11.9,46.5c7.4,31.2,13.8,62.5,19.4,94.1c5.6,31.5,10,63.3,13.2,95.1c3.2,31.9,5.7,63.8,8.3,95.7
							c2.5,31.9,4.3,63.9,5.7,95.9c1.2,32,1.7,64,1.6,96c-0.3,16-0.4,32-1.1,48c-0.4,16-1.4,32-2.3,47.9l-1.9,23.9l-0.5,6
							c-0.1,2-0.3,4-0.5,6l-1.2,11.9l-1.3,11.9c-0.2,2-0.4,4-0.7,6l-0.8,5.9l-3.1,23.8c-0.1,0.7-0.7,1.1-1.3,1
							C1375,1837.3,1374.6,1836.7,1374.6,1836.1L1374.6,1836.1z"/>
						<path class="st1" d="M1070.6,1007.9c-4.1-11.1-7.8-22.5-11.1-33.9c-3.1-11.5-5.8-23.1-8.1-34.9c-2.2-11.7-3.9-23.6-5.3-35.4
							c-1.3-11.9-2.3-23.8-2.9-35.8c-0.5-12-0.7-23.9-0.5-35.9c0.2-12,0.7-23.9,1.4-35.9c0.9-11.9,2-23.9,3.4-35.8
							c1.4-11.9,3.1-23.7,5-35.6c3.9-23.6,8.3-47.2,13.6-70.6c0.7-2.9,1.4-5.8,2.1-8.7c0.7-2.9,1.4-5.8,2.2-8.7
							c1.5-5.8,3.2-11.6,4.9-17.3c3.4-11.5,7.3-22.8,11.4-34c8.3-22.4,17.8-44.5,28.3-65.9c5.3-10.7,10.9-21.3,16.8-31.7
							c3-5.2,6-10.3,9.2-15.4c1.6-2.5,3.2-5.1,4.8-7.6c1.7-2.5,3.3-5,5.1-7.4c0.4-0.5,1.2-0.7,1.7-0.3c0.4,0.3,0.6,0.9,0.4,1.4l0,0
							c-7.6,22.6-15.1,45-22.4,67.4c-7.3,22.4-14.4,44.8-21.3,67.2l-20.4,67.2c-6.8,22.4-12.9,45-17.7,68c-2.4,11.5-4.6,23-6.5,34.5
							c-1.9,11.6-3.5,23.2-4.9,34.8c-1.4,11.6-2.5,23.3-3.4,35c-0.8,11.7-1.3,23.4-1.4,35.1c-0.7,46.9,4.4,94,17.6,139.5l0,0
							c0.2,0.6-0.2,1.3-0.8,1.5C1071.5,1008.9,1070.8,1008.5,1070.6,1007.9z"/>
						<path class="st1" d="M1220.9,639l-11-32.4c-0.9-2.7-1.9-5.4-2.9-8.1l-3-8l-5.9-16c-1.9-5.4-4.1-10.6-6.2-15.9l-6.3-15.9
							c-2-5.3-4.4-10.5-6.6-15.8l-6.8-15.7l-1.7-3.9c-0.6-1.3-1.2-2.6-1.8-3.9l-3.6-7.7l-7.2-15.5c-1.2-2.6-2.5-5.1-3.8-7.7
							l-3.8-7.6l-7.7-15.2l-8.2-15l-4.1-7.5l-2-3.7l-2.2-3.7l-8.7-14.7c-1.5-2.4-2.9-4.9-4.4-7.3l-4.6-7.2l-9.1-14.3
							c-3.1-4.7-6.4-9.3-9.6-14c-6.3-9.4-13.2-18.4-19.9-27.5c-1.6-2.3-3.5-4.5-5.2-6.7l-5.3-6.6c-3.5-4.4-7-8.8-10.8-13l-11.1-12.8
							c-3.8-4.2-7.7-8.2-11.6-12.3c-31-32.7-66.2-61.2-104.5-84.2c-38.5-22.8-80.5-39.1-124-48.6l-8.1-1.8c-1.4-0.3-2.7-0.6-4.1-0.8
							l-4.1-0.7l-8.2-1.5c-1.4-0.3-2.7-0.5-4.1-0.6l-4.1-0.6l-8.2-1.2c-2.7-0.4-5.5-0.7-8.3-1l-8.3-0.9c-2.8-0.3-5.5-0.5-8.3-0.7
							c-22.2-1.9-44.5-2.4-66.8-1.6l-4.2,0.1c-1.4,0-2.8,0.1-4.2,0.2l-8.4,0.5c-2.8,0.1-5.6,0.4-8.4,0.6l-8.4,0.7
							c-5.6,0.5-11.1,1.1-16.7,1.8l-8.3,1.1c-2.8,0.4-5.6,0.7-8.3,1.2c-22.2,3.3-44.3,7.6-66.2,13.1c-11,2.7-21.8,5.7-32.7,8.9
							c-10.8,3.2-21.6,6.7-32.4,10.4c-10.8,3.6-21.4,7.6-32,11.8c-5.3,2.1-10.6,4.2-15.8,6.5c-5.2,2.2-10.5,4.5-15.6,6.9l0,0
							c-0.6,0.3-1.3,0-1.6-0.6c-0.3-0.5-0.1-1.2,0.4-1.5c4.8-3.3,9.7-6.3,14.6-9.3c5-2.9,10-5.8,15-8.5
							c10.1-5.5,20.4-10.6,30.9-15.5c10.5-4.8,21.1-9.4,31.8-13.6l8.1-3.1c2.7-1,5.4-2,8.1-3c2.7-1,5.4-2,8.2-2.9l8.2-2.7
							c2.7-0.9,5.5-1.8,8.3-2.6c2.8-0.8,5.5-1.7,8.3-2.6l8.4-2.4l4.2-1.2l4.2-1.1l8.4-2.2c2.8-0.7,5.6-1.3,8.5-2
							c5.6-1.4,11.3-2.5,17-3.7c2.8-0.6,5.7-1.1,8.6-1.6l8.6-1.5c5.7-0.9,11.5-1.8,17.3-2.6l8.7-1c2.9-0.3,5.8-0.7,8.7-0.9l8.7-0.8
							c1.5-0.1,2.9-0.3,4.4-0.4l4.4-0.3c23.3-1.5,46.8-1.4,70.1,0.7c2.9,0.3,5.8,0.4,8.8,0.8l8.7,1.1c2.9,0.4,5.8,0.7,8.7,1.2
							l8.7,1.4c2.9,0.5,5.8,0.9,8.7,1.5l8.6,1.8l4.3,0.9c1.4,0.3,2.9,0.6,4.3,1l8.5,2.1c22.7,5.9,44.9,13.5,66.4,22.8
							c5.4,2.4,10.8,4.6,16,7.3l7.9,3.9l3.9,1.9l3.9,2.1l7.7,4.2l3.9,2.1l1.9,1c0.6,0.4,1.3,0.7,1.9,1.1l15,9
							c39.5,24.9,75.2,55.3,106.2,89.7c3.8,4.3,7.7,8.6,11.5,13l11,13.4c3.7,4.4,7.2,9.1,10.7,13.7l5.2,6.9c1.7,2.3,3.5,4.6,5.1,7
							c6.6,9.5,13.4,18.8,19.5,28.6c3.1,4.9,6.3,9.7,9.3,14.5l8.8,14.8l4.4,7.4c1.4,2.5,2.8,5,4.2,7.6l8.3,15.1l2.1,3.8l1.9,3.8
							l3.9,7.7l7.7,15.4l7.2,15.6l3.6,7.8c1.2,2.6,2.4,5.2,3.5,7.8l6.7,15.8l3.4,7.9c0.6,1.3,1.1,2.6,1.7,4l1.6,4l6.3,16
							c2.1,5.3,4.2,10.6,6.1,16.1l5.8,16.2c1.9,5.4,4,10.7,5.7,16.2l5.3,16.3l2.7,8.2c0.9,2.7,1.8,5.4,2.6,8.2l9.7,32.9
							c0.2,0.6-0.2,1.3-0.8,1.5C1221.8,640,1221.2,639.6,1220.9,639L1220.9,639z"/>
						<path class="st1" d="M1278.2,1076.1c-1.2,11.5-2.8,22.9-4.8,34.3c-1.9,11.4-4.4,22.7-7.1,33.9c-5.5,22.5-12.8,44.5-21.5,65.9
							c-17.5,42.9-41.6,83.2-70.4,119.7c-28.8,36.5-62.2,69.2-98,98.8c-35.9,29.5-74.1,55.9-113.4,80.4
							c-39.3,24.5-79.5,47.4-119.9,69.5c-10.1,5.5-20.3,11-30.4,16.4l-30.5,16.1l-61,31.7c-10.1,5.3-20.2,10.7-30.2,16.1
							c-10,5.4-19.9,11-29.8,16.7c-19.7,11.4-38.9,23.4-57.3,36.5c-18.3,13.2-35.7,27.6-50.8,44.2c-15.1,16.6-27.6,35.7-35.2,57.3
							c-0.2,0.6-0.9,1-1.5,0.7c-0.6-0.2-0.9-0.8-0.8-1.4c1.1-5.7,2.6-11.4,4.4-17c1.8-5.6,4.1-11,6.5-16.4
							c5-10.7,11.2-20.8,18.1-30.3c3.5-4.8,7.2-9.3,11-13.8c3.9-4.4,7.8-8.8,12-13c4.1-4.2,8.3-8.3,12.7-12.3
							c4.3-4,8.7-7.8,13.2-11.6c18-15,37.1-28.6,56.6-41.2c9.8-6.3,19.7-12.4,29.6-18.4c10-5.9,20-11.7,30-17.4
							c40.3-22.7,81.4-43.4,122.4-64.1c41-20.6,81.7-41.6,121-64.9c39.3-23.2,77.5-48.3,113.4-76.4c35.9-28,69.5-59.1,98.7-94
							c29.3-34.7,54.2-73.4,72.9-115c9.3-20.8,17.2-42.3,23.4-64.3c3.1-11,6-22.1,8.3-33.3c2.4-11.2,4.4-22.5,6.1-33.8l0,0
							c0.1-0.7,0.7-1.1,1.4-1C1277.8,1074.9,1278.3,1075.5,1278.2,1076.1z"/>
						<path class="st1" d="M1223.2,638.3c11.8,32.6,22.2,65.7,31.6,99.1l3.5,12.5l3.3,12.6c2.3,8.4,4.4,16.8,6.5,25.2
							c2.1,8.4,4,16.9,6,25.3c2,8.5,3.8,16.9,5.7,25.4l5.6,25.5c0.9,4.2,2,8.5,2.8,12.7l2.7,12.8c0.8,4.3,1.7,8.5,2.5,12.8
							c0.8,4.3,1.5,8.6,2.1,12.9c0.7,4.3,1.3,8.6,1.8,12.9c0.5,4.3,1,8.6,1.4,13l1.2,13c0.3,4.3,0.7,8.7,0.9,13
							c0.3,4.3,0.5,8.7,0.7,13c0.1,2.2,0.2,4.3,0.3,6.5l0.2,6.5c0.2,8.7,0.3,17.4,0.1,26.2c-0.2,8.7-0.6,17.5-1.4,26.3
							c-0.1,0.7-0.7,1.2-1.3,1.1c-0.5,0-0.9-0.4-1-0.8l0,0c-2.7-8.4-5-16.8-7.1-25.3c-2.1-8.4-4.2-16.9-6-25.3
							c-1.8-8.5-3.7-16.9-5.4-25.4c-1.7-8.5-3.3-16.9-4.9-25.4c-0.8-4.2-1.5-8.5-2.2-12.7c-0.7-4.2-1.4-8.5-2.1-12.7
							c-1.3-8.5-2.3-17.1-3.4-25.6c-1-8.6-1.9-17.1-3-25.7l-1.7-12.8c-0.6-4.3-1.2-8.5-1.9-12.8c-1.3-8.5-2.6-17-4.1-25.5
							c-1.4-8.5-2.8-17-4.4-25.5c-1.5-8.5-2.9-17-4.5-25.5l-2.4-12.7l-2.5-12.7c-6.5-33.9-14.1-67.6-22.2-101.2
							c-0.2-0.6,0.2-1.3,0.9-1.5C1222.4,637.4,1223,637.7,1223.2,638.3z"/>
						<path class="st1" d="M1221.2,637.9c3.1-4.7,6.2-9.6,9.1-14.5c3-4.9,5.8-9.8,8.6-14.8c5.5-9.9,10.8-20,15.6-30.2
							c4.9-10.2,9.5-20.5,13.5-31c4.2-10.4,8-21,11.2-31.6c3.3-10.7,5.5-21.6,7.3-32.4c1.7-10.9,3.6-21.5,5.5-32.3
							c1.8-10.7,3.2-21.5,4.4-32.5c1-11,1.5-22.2,2.2-34.1l0-0.1c0-0.7,0.6-1.2,1.3-1.2c0.4,0,0.8,0.3,1,0.6c1.5,2.6,2.8,5.3,4.1,8
							c0.6,1.4,1.3,2.7,1.8,4.1l1.6,4.2c1,2.8,2.1,5.7,2.7,8.6c0.7,2.9,1.5,5.8,2.1,8.8c2.2,11.8,3.1,24,2.6,36
							c-0.6,12-2.8,23.9-6.2,35.3c-3.6,11.4-8,22.4-12.3,33.3c-4.5,10.9-9.4,21.5-14.8,31.9c-5.5,10.3-11.3,20.4-17.5,30.2
							c-6.3,9.8-12.9,19.3-19.8,28.5c-7,9.2-14.2,18.2-22.1,26.6c-0.5,0.5-1.2,0.5-1.7,0.1C1220.9,639.1,1220.8,638.4,1221.2,637.9
							L1221.2,637.9z"/>
					</g>
				</g>
			</g>
		</g>
	</g>
</g>
</svg>
